<svg width="56" height="54" viewBox="0 0 56 54" fill="none" xmlns="http://www.w3.org/2000/svg">
<g clip-path="url(#clip0_3_166)">
<path d="M49.9765 35.1699C46.3295 29.4719 40.075 26.9624 36.0045 29.5664C35.6545 29.7904 35.329 30.0494 35.035 30.3294L30.6915 23.5324L40.726 7.78242C41.5485 6.26692 41.8495 4.46092 41.4505 2.64442C41.0857 0.975219 40.1561 -0.516947 38.8185 -1.58008L38.1465 -2.00708L26.2535 16.5919L14.3605 -2.00708L13.6885 -1.58008C12.3187 -0.494197 11.3762 1.04044 11.0272 2.75328C10.6783 4.46612 10.9452 6.24716 11.781 7.78242L21.8155 23.5324L17.472 30.3294C17.1741 30.0446 16.8494 29.789 16.5025 29.5664C12.432 26.9624 6.17752 29.4684 2.53051 35.1699C-1.11649 40.8714 -0.773485 47.5984 3.29701 50.2059C7.36751 52.8099 13.622 50.3039 17.269 44.6024L26.2535 30.5009L35.238 44.6024C38.885 50.3004 45.1395 52.8099 49.21 50.2059C53.2805 47.6019 53.6235 40.8714 49.9765 35.1699ZM12.845 41.7744C11.2035 44.3399 9.09651 45.5859 7.67201 45.9009C7.20651 46.0024 6.56251 46.0654 6.12151 45.7854C5.63501 45.4739 5.31301 44.6514 5.25701 43.5839C5.16951 41.8549 5.78551 39.8179 6.94751 38.0049C8.58902 35.4394 10.696 34.1934 12.1205 33.8784C12.586 33.7769 13.23 33.7139 13.671 33.9939C14.1575 34.3054 14.4795 35.1279 14.5355 36.1954C14.623 37.9279 14.007 39.9614 12.845 41.7744ZM26.25 25.9999C25.7859 25.9999 25.3408 25.8155 25.0126 25.4874C24.6844 25.1592 24.5 24.7141 24.5 24.2499C24.5 23.7858 24.6844 23.3407 25.0126 23.0125C25.3408 22.6843 25.7859 22.4999 26.25 22.4999C26.7141 22.4999 27.1593 22.6843 27.4875 23.0125C27.8156 23.3407 28 23.7858 28 24.2499C28 24.7141 27.8156 25.1592 27.4875 25.4874C27.1593 25.8155 26.7141 25.9999 26.25 25.9999ZM47.243 43.5804C47.187 44.6479 46.865 45.4704 46.3785 45.7819C45.941 46.0619 45.2935 45.9989 44.828 45.8974C43.4035 45.5859 41.2965 44.3364 39.655 41.7709C38.493 39.9544 37.877 37.9209 37.9645 36.1919C38.0205 35.1244 38.3425 34.3019 38.829 33.9904C39.2665 33.7104 39.914 33.7734 40.3795 33.8749C41.804 34.1864 43.911 35.4359 45.5525 38.0014C46.7145 39.8179 47.3305 41.8514 47.243 43.5804Z" fill="#F8F8F8"/>
</g>
<defs>
<clipPath id="clip0_3_166">
<rect width="56" height="56" fill="white" transform="translate(0 -2)"/>
</clipPath>
</defs>
</svg>
