<svg width="56" height="56" viewBox="0 0 56 56" fill="none" xmlns="http://www.w3.org/2000/svg">
<path d="M28.3333 27.1667C26.7862 27.1667 25.3025 26.5521 24.2085 25.4581C23.1146 24.3642 22.5 22.8804 22.5 21.3333C22.5 19.7862 23.1146 18.3025 24.2085 17.2085C25.3025 16.1146 26.7862 15.5 28.3333 15.5C29.8804 15.5 31.3642 16.1146 32.4581 17.2085C33.5521 18.3025 34.1667 19.7862 34.1667 21.3333C34.1667 22.0994 34.0158 22.8579 33.7226 23.5657C33.4295 24.2734 32.9998 24.9164 32.4581 25.4581C31.9164 25.9998 31.2734 26.4295 30.5657 26.7226C29.8579 27.0158 29.0994 27.1667 28.3333 27.1667ZM28.3333 5C24.0015 5 19.847 6.72083 16.7839 9.78392C13.7208 12.847 12 17.0015 12 21.3333C12 33.5833 28.3333 51.6667 28.3333 51.6667C28.3333 51.6667 44.6667 33.5833 44.6667 21.3333C44.6667 17.0015 42.9458 12.847 39.8827 9.78392C36.8197 6.72083 32.6652 5 28.3333 5Z" fill="#F8F8F8"/>
</svg>
