<svg width="13" height="11" viewBox="0 0 13 11" fill="none" xmlns="http://www.w3.org/2000/svg">
<path d="M3.788 10.332C3.236 10.332 2.78 10.224 2.42 10.008C2.06 9.792 1.76 9.504 1.52 9.144C1.28 8.76 1.1 8.328 0.98 7.848C0.884 7.368 0.836 6.936 0.836 6.552C0.836 5.376 1.136 4.296 1.736 3.312C2.36 2.328 3.308 1.536 4.58 0.935999L4.904 1.584C4.184 1.896 3.56 2.376 3.032 3.024C2.504 3.672 2.216 4.332 2.168 5.004C2.12 5.364 2.144 5.7 2.24 6.012C2.672 5.604 3.2 5.4 3.824 5.4C4.52 5.4 5.108 5.628 5.588 6.084C6.068 6.516 6.308 7.116 6.308 7.884C6.308 8.604 6.056 9.192 5.552 9.648C5.072 10.104 4.484 10.332 3.788 10.332ZM10.34 10.332C9.788 10.332 9.332 10.224 8.972 10.008C8.612 9.792 8.312 9.504 8.072 9.144C7.832 8.76 7.652 8.328 7.532 7.848C7.436 7.368 7.388 6.936 7.388 6.552C7.388 5.376 7.688 4.296 8.288 3.312C8.912 2.328 9.86 1.536 11.132 0.935999L11.456 1.584C10.736 1.896 10.112 2.376 9.584 3.024C9.056 3.672 8.768 4.332 8.72 5.004C8.672 5.364 8.696 5.7 8.792 6.012C9.224 5.604 9.752 5.4 10.376 5.4C11.072 5.4 11.66 5.628 12.14 6.084C12.62 6.516 12.86 7.116 12.86 7.884C12.86 8.604 12.608 9.192 12.104 9.648C11.624 10.104 11.036 10.332 10.34 10.332Z" fill="white"/>
</svg>
