<svg width="36" height="36" viewBox="0 0 36 36" fill="none" xmlns="http://www.w3.org/2000/svg">
<path d="M29.3188 26.9311C29.6359 27.2481 29.814 27.6781 29.814 28.1264C29.814 28.5747 29.6359 29.0047 29.3188 29.3217C29.0018 29.6387 28.5719 29.8168 28.1235 29.8168C27.6752 29.8168 27.2452 29.6387 26.9282 29.3217L17.9999 20.3906L9.06884 29.3189C8.75183 29.6359 8.32186 29.814 7.87353 29.814C7.4252 29.814 6.99524 29.6359 6.67822 29.3189C6.3612 29.0019 6.18311 28.5719 6.18311 28.1236C6.18311 27.6753 6.3612 27.2453 6.67822 26.9283L15.6093 18L6.68103 9.06891C6.36402 8.75189 6.18592 8.32193 6.18592 7.8736C6.18592 7.42527 6.36402 6.9953 6.68103 6.67828C6.99805 6.36127 7.42802 6.18317 7.87634 6.18317C8.32467 6.18317 8.75464 6.36127 9.07166 6.67828L17.9999 15.6094L26.931 6.67688C27.248 6.35986 27.678 6.18176 28.1263 6.18176C28.5747 6.18176 29.0046 6.35986 29.3217 6.67688C29.6387 6.99389 29.8168 7.42386 29.8168 7.87219C29.8168 8.32052 29.6387 8.75049 29.3217 9.0675L20.3906 18L29.3188 26.9311Z" fill="#F8F8F8"/>
</svg>
