<svg width="56" height="56" viewBox="0 0 56 56" fill="none" xmlns="http://www.w3.org/2000/svg">
<path d="M28 7C22.4305 7 17.089 9.21249 13.1508 13.1508C9.21249 17.089 7 22.4305 7 28C7 33.5695 9.21249 38.911 13.1508 42.8492C17.089 46.7875 22.4305 49 28 49C29.9367 49 31.5 47.4367 31.5 45.5C31.5 44.59 31.15 43.7733 30.59 43.1433C30.0533 42.5367 29.7033 41.72 29.7033 40.8333C29.7033 38.8967 31.2667 37.3333 33.2033 37.3333H37.3333C43.7733 37.3333 49 32.1067 49 25.6667C49 15.3533 39.5967 7 28 7ZM15.1667 28C13.23 28 11.6667 26.4367 11.6667 24.5C11.6667 22.5633 13.23 21 15.1667 21C17.1033 21 18.6667 22.5633 18.6667 24.5C18.6667 26.4367 17.1033 28 15.1667 28ZM22.1667 18.6667C20.23 18.6667 18.6667 17.1033 18.6667 15.1667C18.6667 13.23 20.23 11.6667 22.1667 11.6667C24.1033 11.6667 25.6667 13.23 25.6667 15.1667C25.6667 17.1033 24.1033 18.6667 22.1667 18.6667ZM33.8333 18.6667C31.8967 18.6667 30.3333 17.1033 30.3333 15.1667C30.3333 13.23 31.8967 11.6667 33.8333 11.6667C35.77 11.6667 37.3333 13.23 37.3333 15.1667C37.3333 17.1033 35.77 18.6667 33.8333 18.6667ZM40.8333 28C38.8967 28 37.3333 26.4367 37.3333 24.5C37.3333 22.5633 38.8967 21 40.8333 21C42.77 21 44.3333 22.5633 44.3333 24.5C44.3333 26.4367 42.77 28 40.8333 28Z" fill="#F8F8F8"/>
</svg>
