<svg width="56" height="56" viewBox="0 0 56 56" fill="none" xmlns="http://www.w3.org/2000/svg">
<path d="M47 18.3333L28.3333 30L9.66667 18.3333V13.6667L28.3333 25.3333L47 13.6667M47 9H9.66667C7.07667 9 5 11.0767 5 13.6667V41.6667C5 42.9043 5.49167 44.0913 6.36683 44.9665C7.242 45.8417 8.42899 46.3333 9.66667 46.3333H47C48.2377 46.3333 49.4247 45.8417 50.2998 44.9665C51.175 44.0913 51.6667 42.9043 51.6667 41.6667V13.6667C51.6667 12.429 51.175 11.242 50.2998 10.3668C49.4247 9.49167 48.2377 9 47 9Z" fill="#F8F8F8"/>
</svg>
