<svg width="56" height="56" viewBox="0 0 56 56" fill="none" xmlns="http://www.w3.org/2000/svg">
<path d="M28.3333 22.5467C27.1888 22.5467 26.07 22.886 25.1184 23.5219C24.1668 24.1577 23.4251 25.0615 22.9872 26.1189C22.5492 27.1762 22.4346 28.3398 22.6579 29.4623C22.8811 30.5848 23.4323 31.6158 24.2415 32.4251C25.0508 33.2344 26.0819 33.7855 27.2044 34.0088C28.3269 34.2321 29.4904 34.1175 30.5478 33.6795C31.6052 33.2415 32.5089 32.4998 33.1448 31.5482C33.7806 30.5966 34.12 29.4778 34.12 28.3333C34.12 27.5734 33.9703 26.8209 33.6795 26.1189C33.3887 25.4168 32.9625 24.7789 32.4251 24.2415C31.8878 23.7042 31.2499 23.278 30.5478 22.9872C29.8457 22.6963 29.0933 22.5467 28.3333 22.5467ZM51.5033 16.83C51.4911 15.0281 51.1593 13.2427 50.5233 11.5567C50.055 10.3229 49.3304 9.20255 48.3972 8.26943C47.4641 7.33631 46.3437 6.61167 45.11 6.14333C43.424 5.50742 41.6386 5.17561 39.8367 5.16333C36.8267 5 35.94 5 28.3333 5C20.7267 5 19.84 5 16.83 5.16333C15.0281 5.17561 13.2427 5.50742 11.5567 6.14333C10.3229 6.61167 9.20255 7.33631 8.26943 8.26943C7.33631 9.20255 6.61167 10.3229 6.14333 11.5567C5.50742 13.2427 5.17561 15.0281 5.16333 16.83C5 19.84 5 20.7267 5 28.3333C5 35.94 5 36.8267 5.16333 39.8367C5.18845 41.6449 5.51981 43.4358 6.14333 45.1333C6.6096 46.3614 7.33363 47.4753 8.26667 48.4C9.19579 49.3387 10.3186 50.0634 11.5567 50.5233C13.2427 51.1593 15.0281 51.4911 16.83 51.5033C19.84 51.6667 20.7267 51.6667 28.3333 51.6667C35.94 51.6667 36.8267 51.6667 39.8367 51.5033C41.6386 51.4911 43.424 51.1593 45.11 50.5233C46.3481 50.0634 47.4709 49.3387 48.4 48.4C49.333 47.4753 50.0571 46.3614 50.5233 45.1333C51.1586 43.4391 51.4904 41.6461 51.5033 39.8367C51.6667 36.8267 51.6667 35.94 51.6667 28.3333C51.6667 20.7267 51.6667 19.84 51.5033 16.83ZM45.5767 35.4967C45.5018 36.9366 45.1945 38.3549 44.6667 39.6967C44.2137 40.8159 43.5403 41.8327 42.6865 42.6865C41.8327 43.5403 40.8159 44.2137 39.6967 44.6667C38.3422 45.1651 36.916 45.4408 35.4733 45.4833H21.1933C19.7507 45.4408 18.3245 45.1651 16.97 44.6667C15.8129 44.2367 14.768 43.5507 13.9133 42.66C13.0679 41.8229 12.415 40.8117 12 39.6967C11.4996 38.3436 11.2314 36.9157 11.2067 35.4733V21.1933C11.2314 19.7509 11.4996 18.3231 12 16.97C12.43 15.8129 13.116 14.768 14.0067 13.9133C14.8474 13.0725 15.8576 12.4202 16.97 12C18.3245 11.5016 19.7507 11.2258 21.1933 11.1833H35.4733C36.916 11.2258 38.3422 11.5016 39.6967 12C40.8538 12.43 41.8987 13.116 42.7533 14.0067C43.5988 14.8437 44.2517 15.855 44.6667 16.97C45.1651 18.3245 45.4408 19.7507 45.4833 21.1933V28.3333C45.4833 33.14 45.6467 33.63 45.5767 35.4733V35.4967ZM41.8433 18.1367C41.5655 17.383 41.1275 16.6985 40.5595 16.1305C39.9915 15.5625 39.307 15.1245 38.5533 14.8467C37.5184 14.4879 36.4285 14.3142 35.3333 14.3333H21.3333C20.2326 14.3441 19.1425 14.5495 18.1133 14.94C17.3712 15.2052 16.694 15.6253 16.1267 16.1725C15.5594 16.7196 15.1151 17.3812 14.8233 18.1133C14.4845 19.1525 14.3189 20.2404 14.3333 21.3333V35.3333C14.3565 36.4328 14.5615 37.5208 14.94 38.5533C15.2178 39.307 15.6558 39.9915 16.2238 40.5595C16.7918 41.1275 17.4763 41.5655 18.23 41.8433C19.2256 42.2095 20.2732 42.4143 21.3333 42.45H35.3333C36.434 42.4392 37.5242 42.2339 38.5533 41.8433C39.307 41.5655 39.9915 41.1275 40.5595 40.5595C41.1275 39.9915 41.5655 39.307 41.8433 38.5533C42.2339 37.5242 42.4392 36.434 42.45 35.3333V21.3333C42.4507 20.2315 42.2449 19.1394 41.8433 18.1133V18.1367ZM28.3333 37.2467C27.1639 37.2467 26.006 37.016 24.9259 36.5677C23.8458 36.1195 22.8647 35.4626 22.0389 34.6346C21.2131 33.8066 20.5587 32.8238 20.1133 31.7426C19.6679 30.6613 19.4403 29.5027 19.4433 28.3333C19.4433 26.5695 19.9667 24.8452 20.9471 23.3789C21.9276 21.9126 23.321 20.7702 24.9511 20.0963C26.5812 19.4223 28.3745 19.2472 30.1042 19.593C31.8338 19.9388 33.422 20.7901 34.6676 22.039C35.9132 23.2878 36.7603 24.8782 37.1016 26.6088C37.4429 28.3393 37.263 30.1322 36.5848 31.7605C35.9066 33.3888 34.7605 34.7793 33.2917 35.7559C31.8228 36.7325 30.0972 37.2513 28.3333 37.2467ZM37.6667 21.17C37.1509 21.1154 36.6735 20.8719 36.3266 20.4863C35.9797 20.1007 35.7877 19.6003 35.7877 19.0817C35.7877 18.563 35.9797 18.0627 36.3266 17.6771C36.6735 17.2915 37.1509 17.0479 37.6667 16.9933C38.1825 17.0479 38.6598 17.2915 39.0067 17.6771C39.3537 18.0627 39.5456 18.563 39.5456 19.0817C39.5456 19.6003 39.3537 20.1007 39.0067 20.4863C38.6598 20.8719 38.1825 21.1154 37.6667 21.17Z" fill="#F8F8F8"/>
</svg>
