<svg width="36" height="37" viewBox="0 0 36 37" fill="none" xmlns="http://www.w3.org/2000/svg">
<path d="M12.378 28.1885C11.193 30.146 10.6605 32 8.55 32C6.3135 32 4.5 30.1355 4.5 27.8345C4.5 25.5335 6.3135 23.6675 8.55 23.6675C10.65 23.6675 12.375 25.31 12.579 27.4145C12.5968 27.6869 12.5263 27.9593 12.378 28.1885ZM12.378 28.1885L15.3 22.9745M23.622 28.1885C24.807 30.146 25.3395 32 27.45 32C29.6865 32 31.5 30.1355 31.5 27.8345C31.5 25.5335 29.6865 23.6675 27.45 23.6675C25.35 23.6675 23.625 25.31 23.4195 27.4145C23.394 27.6875 23.4795 27.956 23.622 28.1885ZM23.622 28.1885L10.6395 5.519C10.56 5.37537 10.4459 5.25381 10.3076 5.16531C10.1693 5.0768 10.0111 5.02415 9.84735 5.01209C9.6836 5.00003 9.51943 5.02895 9.36966 5.09624C9.21988 5.16353 9.08923 5.26707 8.9895 5.3975C6.4335 8.6825 6.6885 13.4225 9.582 16.397L23.622 28.1885ZM17.9265 18.2435L25.356 5.5025C25.4366 5.36026 25.5513 5.2402 25.6896 5.15305C25.828 5.06591 25.9858 5.01439 26.1489 5.0031C26.312 4.9918 26.4754 5.02109 26.6244 5.08835C26.7735 5.1556 26.9035 5.25872 27.003 5.3885C29.5635 8.6795 29.3085 13.4255 26.4105 16.406L24.75 18.113" stroke="#F8F8F8" stroke-width="2" stroke-linecap="round" stroke-linejoin="round"/>
</svg>
