<svg width="12" height="12" viewBox="0 0 12 12" fill="none" xmlns="http://www.w3.org/2000/svg">
<path d="M7.875 4.5H8.8125C9.06114 4.5 9.2996 4.59877 9.47541 4.77459C9.65123 4.9504 9.75 5.18886 9.75 5.4375V9.9375C9.75 10.1861 9.65123 10.4246 9.47541 10.6004C9.2996 10.7762 9.06114 10.875 8.8125 10.875H3.1875C2.93886 10.875 2.7004 10.7762 2.52459 10.6004C2.34877 10.4246 2.25 10.1861 2.25 9.9375V5.4375C2.25 5.18886 2.34877 4.9504 2.52459 4.77459C2.7004 4.59877 2.93886 4.5 3.1875 4.5H4.125M7.875 3L6 1.125M6 1.125L4.125 3M6 1.125V7.52344" stroke="#F8F8F8" stroke-linecap="round" stroke-linejoin="round"/>
</svg>
