<svg width="56" height="56" viewBox="0 0 56 56" fill="none" xmlns="http://www.w3.org/2000/svg">
<path d="M44.3333 27.8833C44.3333 23.3333 42.7482 19.474 39.578 16.3053C36.4078 13.1366 32.5484 11.5515 28 11.55V6.8833C30.9167 6.8833 33.649 7.43786 36.197 8.54697C38.745 9.65608 40.9617 11.1533 42.847 13.0386C44.7323 14.924 46.2296 17.1406 47.3387 19.6886C48.4478 22.2366 49.0016 24.9682 49 27.8833H44.3333ZM35 27.8833C35 25.9389 34.3194 24.2861 32.9583 22.925C31.5972 21.5639 29.9444 20.8833 28 20.8833V16.2166C31.2278 16.2166 33.9796 17.3545 36.2553 19.6303C38.5311 21.9061 39.6682 24.6571 39.6667 27.8833H35ZM46.55 49C41.5333 49 36.6427 47.8916 31.878 45.675C27.1133 43.4583 22.8939 40.5027 19.2197 36.8083C15.5454 33.1139 12.5899 28.8843 10.353 24.1196C8.11611 19.355 6.99845 14.4651 7 9.44997V8.22497C7 7.79719 7.03889 7.38886 7.11667 6.99997H20.7667L22.925 18.725L16.275 25.4333C17.9083 28.2333 19.9601 30.8583 22.4303 33.3083C24.9006 35.7583 27.6127 37.8777 30.5667 39.6666L37.3333 32.9L49 35.2333V48.8833C48.6111 48.9222 48.2028 48.9517 47.775 48.972C47.3472 48.9922 46.9389 49.0015 46.55 49Z" fill="#F8F8F8"/>
</svg>
