<svg width="56" height="56" viewBox="0 0 56 56" fill="none" xmlns="http://www.w3.org/2000/svg">
<path d="M21.916 4C21.7301 4 21.5989 4.03938 21.5223 4.09188C20.5051 4.84 19.9473 6.36797 19.9692 8.05891C19.9801 8.86391 20.1442 9.68313 20.4067 10.4291C21.3145 9.85156 22.277 9.29047 23.2832 8.74687C23.2614 8.61562 23.2614 8.48656 23.2614 8.36297C23.2614 7.77453 23.4145 7.25281 23.5457 6.77703C23.677 6.30234 23.7973 5.87141 23.841 5.55859C23.8848 5.24578 23.852 5.11016 23.8082 5.05C23.6332 4.75578 23.1082 4.32703 22.5942 4.13234C22.3317 4.035 22.102 4 21.916 4ZM29.0801 8.64406C28.3801 8.63094 27.6254 8.78625 26.8379 9.16469H26.827C16.1848 14.1555 10.657 20.9477 7.6787 27.4992C4.69605 34.0398 4.27933 40.3508 4.02667 44.3758C3.72042 49.2539 6.1037 51.332 8.49355 51.6383C10.891 51.9336 13.3957 50.4789 13.6692 46.8805C14.5004 35.932 17.6832 24.8852 31.8473 15.118L31.8254 15.1289C32.7989 14.418 33.1707 13.6305 33.2473 12.8211C33.3129 12.0117 33.0395 11.1367 32.4707 10.4006C31.7707 9.47531 30.6879 8.77203 29.3754 8.65609C29.277 8.64516 29.1785 8.64188 29.0801 8.63969V8.64406ZM25.7989 11.8258C27.2973 11.8258 28.5332 13.0617 28.5332 14.5602C28.5332 16.0586 27.2973 17.2945 25.7989 17.2945C24.3004 17.2945 23.0645 16.0586 23.0645 14.5602C23.0645 13.0617 24.3004 11.8258 25.7989 11.8258ZM25.7989 13.7945C25.3614 13.7945 25.0332 14.1227 25.0332 14.5602C25.0332 14.9977 25.3614 15.3258 25.7989 15.3258C26.2364 15.3258 26.5645 14.9977 26.5645 14.5602C26.5645 14.1227 26.2364 13.7945 25.7989 13.7945ZM31.5301 17.7648C30.6114 18.432 29.7473 19.1102 28.927 19.7883L35.2489 26.1102L35.9379 26.8102L34.691 28.0461L50.2989 43.6539C50.4848 43.3805 50.6598 43.107 50.8129 42.8336C51.4473 41.7398 51.852 40.6461 51.8848 39.6945C51.9285 38.743 51.677 37.9227 50.8457 37.1023C44.4145 30.6602 37.9723 24.207 31.5301 17.7648ZM33.302 29.4461L30.9832 31.7648L46.9082 47.6898C47.5864 47.0008 48.3629 46.1695 49.1176 45.2617L33.302 29.4461Z" fill="#F8F8F8"/>
</svg>
